# MagicaVoxel @ Ephtracy

# group
o 

# material
mtllib glass_Tile.mtl
usemtl palette

# normals
vn -1 0 0
vn 1 0 0
vn 0 0 1
vn 0 0 -1
vn 0 -1 0
vn 0 1 0

# texcoords
vt 0.0644531 0.5
vt 0.205078 0.5
vt 0.306641 0.5
vt 0.373047 0.5
vt 0.486328 0.5
vt 0.576172 0.5
vt 0.880859 0.5

# verts
v -0.5 -0.3 0.5
v -0.5 -0.3 0.1
v -0.5 -0.3 -0.1
v -0.5 -0.3 -0.5
v -0.5 -0.2 0.1
v -0.5 -0.2 -0.1
v -0.5 -0.1 0.5
v -0.5 -0.1 0.3
v -0.5 -0.1 -0.2
v -0.5 -0.1 -0.4
v -0.5 0 0.5
v -0.5 0 0.3
v -0.5 0 0.2
v -0.5 0 0
v -0.5 0 -0.2
v -0.5 0 -0.4
v -0.5 0.1 0.2
v -0.5 0.1 0
v -0.5 0.2 0.5
v -0.5 0.2 0.4
v -0.5 0.2 0.3
v -0.5 0.2 0
v -0.5 0.2 -0.1
v -0.5 0.2 -0.5
v -0.5 0.3 0.5
v -0.5 0.3 0.4
v -0.5 0.3 0.3
v -0.5 0.3 0.1
v -0.5 0.3 0
v -0.5 0.3 -0.1
v -0.5 0.3 -0.2
v -0.5 0.3 -0.5
v -0.5 0.4 0.4
v -0.5 0.4 0.3
v -0.5 0.4 0.1
v -0.5 0.4 -0.2
v -0.5 0.4 -0.4
v -0.5 0.4 -0.5
v -0.5 0.5 -0.4
v -0.5 0.5 -0.5
v -0.5 0.6 0.2
v -0.5 0.6 -0.1
v -0.5 0.7 0.5
v -0.5 0.7 0.2
v -0.5 0.7 -0.1
v -0.5 0.7 -0.5
v 0.5 -0.3 0.5
v 0.5 -0.3 -0.3
v 0.5 -0.3 -0.5
v 0.5 -0.2 0.5
v 0.5 -0.2 0.3
v 0.5 -0.2 -0.3
v 0.5 -0.2 -0.5
v 0.5 -0.1 0.5
v 0.5 -0.1 0.3
v 0.5 -0.1 0
v 0.5 -0.1 -0.2
v 0.5 0 0.3
v 0.5 0 0.1
v 0.5 0 0
v 0.5 0 -0.2
v 0.5 0.1 0.3
v 0.5 0.1 0.1
v 0.5 0.1 -0.2
v 0.5 0.1 -0.4
v 0.5 0.2 -0.2
v 0.5 0.2 -0.4
v 0.5 0.3 0.5
v 0.5 0.3 0.4
v 0.5 0.3 0.3
v 0.5 0.3 -0.5
v 0.5 0.4 0.4
v 0.5 0.4 0.3
v 0.5 0.4 0.2
v 0.5 0.4 -0.1
v 0.5 0.4 -0.3
v 0.5 0.4 -0.5
v 0.5 0.5 0.5
v 0.5 0.5 0.2
v 0.5 0.5 -0.1
v 0.5 0.5 -0.3
v 0.5 0.6 0.4
v 0.5 0.6 0.2
v 0.5 0.6 -0.1
v 0.5 0.6 -0.3
v 0.5 0.7 0.5
v 0.5 0.7 0.4
v 0.5 0.7 0.2
v 0.5 0.7 -0.1
v 0.5 0.7 -0.3
v 0.5 0.7 -0.5
v -0.5 -0.3 0.5
v -0.5 -0.1 0.5
v -0.5 0 0.5
v -0.5 0.2 0.5
v -0.5 0.3 0.5
v -0.5 0.7 0.5
v -0.4 -0.1 0.5
v -0.4 0 0.5
v -0.4 0.5 0.5
v -0.4 0.6 0.5
v -0.3 -0.3 0.5
v -0.3 -0.2 0.5
v -0.3 0 0.5
v -0.3 0.1 0.5
v -0.2 0.5 0.5
v -0.2 0.6 0.5
v -0.1 -0.3 0.5
v -0.1 -0.2 0.5
v -0.1 0 0.5
v -0.1 0.1 0.5
v -0.1 0.3 0.5
v -0.1 0.5 0.5
v 0 0.2 0.5
v 0 0.4 0.5
v 0.1 -0.1 0.5
v 0.1 0 0.5
v 0.2 0.2 0.5
v 0.2 0.3 0.5
v 0.3 -0.1 0.5
v 0.3 0 0.5
v 0.4 -0.2 0.5
v 0.4 -0.1 0.5
v 0.4 0.2 0.5
v 0.4 0.3 0.5
v 0.4 0.4 0.5
v 0.5 -0.3 0.5
v 0.5 -0.2 0.5
v 0.5 -0.1 0.5
v 0.5 0.3 0.5
v 0.5 0.5 0.5
v 0.5 0.7 0.5
v -0.5 -0.3 -0.5
v -0.5 0.2 -0.5
v -0.5 0.3 -0.5
v -0.5 0.4 -0.5
v -0.5 0.5 -0.5
v -0.5 0.7 -0.5
v -0.4 -0.2 -0.5
v -0.4 -0.1 -0.5
v -0.3 0.4 -0.5
v -0.3 0.5 -0.5
v -0.2 -0.2 -0.5
v -0.2 -0.1 -0.5
v -0.2 0 -0.5
v -0.2 0.1 -0.5
v -0.1 0.4 -0.5
v -0.1 0.5 -0.5
v 0 0 -0.5
v 0 0.1 -0.5
v 0 0.6 -0.5
v 0 0.7 -0.5
v 0.1 0.4 -0.5
v 0.1 0.5 -0.5
v 0.2 -0.1 -0.5
v 0.2 0 -0.5
v 0.2 0.3 -0.5
v 0.2 0.4 -0.5
v 0.3 0.2 -0.5
v 0.3 0.3 -0.5
v 0.3 0.6 -0.5
v 0.3 0.7 -0.5
v 0.4 -0.3 -0.5
v 0.4 -0.2 -0.5
v 0.4 -0.1 -0.5
v 0.4 0 -0.5
v 0.5 -0.3 -0.5
v 0.5 -0.2 -0.5
v 0.5 0.3 -0.5
v 0.5 0.4 -0.5
v 0.5 0.7 -0.5
v -0.5 -0.3 0.5
v -0.3 -0.3 0.5
v -0.1 -0.3 0.5
v 0.5 -0.3 0.5
v -0.3 -0.3 0.4
v -0.1 -0.3 0.4
v -0.5 -0.3 0.1
v -0.4 -0.3 0.1
v -0.5 -0.3 -0.1
v -0.4 -0.3 -0.1
v 0.4 -0.3 -0.3
v 0.5 -0.3 -0.3
v -0.5 -0.3 -0.5
v 0.4 -0.3 -0.5
v 0.5 -0.3 -0.5
v -0.5 0.7 0.5
v 0.5 0.7 0.5
v -0.2 0.7 0.4
v -0.1 0.7 0.4
v 0.4 0.7 0.4
v 0.5 0.7 0.4
v -0.5 0.7 0.2
v -0.4 0.7 0.2
v -0.2 0.7 0.2
v -0.1 0.7 0.2
v 0.1 0.7 0.2
v 0.2 0.7 0.2
v 0.4 0.7 0.2
v 0.5 0.7 0.2
v 0.1 0.7 0
v 0.2 0.7 0
v -0.5 0.7 -0.1
v -0.4 0.7 -0.1
v -0.2 0.7 -0.1
v 0.1 0.7 -0.1
v 0.4 0.7 -0.1
v 0.5 0.7 -0.1
v -0.2 0.7 -0.2
v 0.1 0.7 -0.2
v 0.4 0.7 -0.3
v 0.5 0.7 -0.3
v 0 0.7 -0.4
v 0.3 0.7 -0.4
v -0.5 0.7 -0.5
v 0 0.7 -0.5
v 0.3 0.7 -0.5
v 0.5 0.7 -0.5

# faces
f 5/4/1 2/4/1 1/4/1
f 5/2/1 3/2/1 2/2/1
f 6/4/1 4/4/1 3/4/1
f 6/2/1 3/2/1 5/2/1
f 7/4/1 5/4/1 1/4/1
f 7/4/1 6/4/1 5/4/1
f 8/4/1 6/4/1 7/4/1
f 9/4/1 4/4/1 6/4/1
f 9/4/1 6/4/1 8/4/1
f 10/4/1 4/4/1 9/4/1
f 11/2/1 8/2/1 7/2/1
f 12/4/1 9/4/1 8/4/1
f 12/2/1 8/2/1 11/2/1
f 13/4/1 9/4/1 12/4/1
f 14/4/1 9/4/1 13/4/1
f 15/2/1 10/2/1 9/2/1
f 15/4/1 9/4/1 14/4/1
f 16/4/1 4/4/1 10/4/1
f 16/2/1 10/2/1 15/2/1
f 17/2/1 14/2/1 13/2/1
f 17/4/1 12/4/1 11/4/1
f 17/4/1 13/4/1 12/4/1
f 18/4/1 15/4/1 14/4/1
f 18/2/1 14/2/1 17/2/1
f 18/4/1 16/4/1 15/4/1
f 19/4/1 17/4/1 11/4/1
f 19/4/1 18/4/1 17/4/1
f 20/4/1 18/4/1 19/4/1
f 21/4/1 18/4/1 20/4/1
f 22/4/1 16/4/1 18/4/1
f 22/4/1 18/4/1 21/4/1
f 23/4/1 16/4/1 22/4/1
f 24/4/1 4/4/1 16/4/1
f 24/4/1 16/4/1 23/4/1
f 25/5/1 20/5/1 19/5/1
f 26/4/1 21/4/1 20/4/1
f 26/5/1 20/5/1 25/5/1
f 27/5/1 22/5/1 21/5/1
f 27/4/1 21/4/1 26/4/1
f 28/5/1 22/5/1 27/5/1
f 29/4/1 23/4/1 22/4/1
f 29/5/1 22/5/1 28/5/1
f 30/5/1 24/5/1 23/5/1
f 30/4/1 23/4/1 29/4/1
f 31/5/1 24/5/1 30/5/1
f 32/5/1 24/5/1 31/5/1
f 33/7/1 26/7/1 25/7/1
f 33/5/1 27/5/1 26/5/1
f 34/7/1 28/7/1 27/7/1
f 34/5/1 27/5/1 33/5/1
f 35/5/1 29/5/1 28/5/1
f 35/7/1 28/7/1 34/7/1
f 35/5/1 30/5/1 29/5/1
f 35/5/1 31/5/1 30/5/1
f 36/7/1 32/7/1 31/7/1
f 36/5/1 31/5/1 35/5/1
f 37/7/1 32/7/1 36/7/1
f 38/7/1 32/7/1 37/7/1
f 39/7/1 34/7/1 33/7/1
f 39/7/1 35/7/1 34/7/1
f 39/6/1 38/6/1 37/6/1
f 39/7/1 37/7/1 36/7/1
f 39/7/1 36/7/1 35/7/1
f 40/6/1 38/6/1 39/6/1
f 41/7/1 39/7/1 33/7/1
f 41/7/1 40/7/1 39/7/1
f 42/7/1 40/7/1 41/7/1
f 43/7/1 33/7/1 25/7/1
f 43/7/1 41/7/1 33/7/1
f 44/6/1 42/6/1 41/6/1
f 44/7/1 41/7/1 43/7/1
f 45/7/1 40/7/1 42/7/1
f 45/6/1 42/6/1 44/6/1
f 46/7/1 40/7/1 45/7/1
f 47/4/2 48/4/2 50/4/2
f 50/4/2 48/4/2 51/4/2
f 48/2/2 49/2/2 52/2/2
f 51/4/2 48/4/2 52/4/2
f 52/2/2 49/2/2 53/2/2
f 50/2/2 51/2/2 54/2/2
f 51/4/2 52/4/2 55/4/2
f 54/2/2 51/2/2 55/2/2
f 52/4/2 53/4/2 55/4/2
f 55/4/2 53/4/2 56/4/2
f 56/4/2 53/4/2 57/4/2
f 54/4/2 55/4/2 58/4/2
f 55/4/2 56/4/2 58/4/2
f 58/4/2 56/4/2 59/4/2
f 56/2/2 57/2/2 60/2/2
f 59/4/2 56/4/2 60/4/2
f 57/4/2 53/4/2 61/4/2
f 60/2/2 57/2/2 61/2/2
f 58/2/2 59/2/2 62/2/2
f 54/4/2 58/4/2 62/4/2
f 59/4/2 60/4/2 63/4/2
f 62/2/2 59/2/2 63/2/2
f 60/4/2 61/4/2 63/4/2
f 61/4/2 53/4/2 64/4/2
f 63/4/2 61/4/2 64/4/2
f 64/4/2 53/4/2 65/4/2
f 62/4/2 63/4/2 66/4/2
f 63/4/2 64/4/2 66/4/2
f 64/2/2 65/2/2 66/2/2
f 65/4/2 53/4/2 67/4/2
f 66/2/2 65/2/2 67/2/2
f 54/4/2 62/4/2 68/4/2
f 62/4/2 66/4/2 68/4/2
f 66/4/2 67/4/2 68/4/2
f 68/4/2 67/4/2 69/4/2
f 69/4/2 67/4/2 70/4/2
f 67/4/2 53/4/2 71/4/2
f 70/4/2 67/4/2 71/4/2
f 69/4/2 70/4/2 72/4/2
f 68/5/2 69/5/2 72/5/2
f 70/5/2 71/5/2 73/5/2
f 72/4/2 70/4/2 73/4/2
f 73/5/2 71/5/2 74/5/2
f 74/5/2 71/5/2 75/5/2
f 75/5/2 71/5/2 76/5/2
f 76/5/2 71/5/2 77/5/2
f 68/5/2 72/5/2 78/5/2
f 72/5/2 73/5/2 78/5/2
f 73/5/2 74/5/2 78/5/2
f 74/7/2 75/7/2 79/7/2
f 78/5/2 74/5/2 79/5/2
f 75/6/2 76/6/2 80/6/2
f 79/7/2 75/7/2 80/7/2
f 76/7/2 77/7/2 81/7/2
f 80/6/2 76/6/2 81/6/2
f 79/7/2 80/7/2 82/7/2
f 78/7/2 79/7/2 82/7/2
f 80/7/2 81/7/2 82/7/2
f 82/7/2 81/7/2 83/7/2
f 83/7/2 81/7/2 84/7/2
f 81/7/2 77/7/2 85/7/2
f 84/7/2 81/7/2 85/7/2
f 78/7/2 82/7/2 86/7/2
f 82/6/2 83/6/2 87/6/2
f 86/7/2 82/7/2 87/7/2
f 83/7/2 84/7/2 88/7/2
f 87/6/2 83/6/2 88/6/2
f 84/6/2 85/6/2 89/6/2
f 88/7/2 84/7/2 89/7/2
f 85/7/2 77/7/2 90/7/2
f 89/6/2 85/6/2 90/6/2
f 90/7/2 77/7/2 91/7/2
f 98/4/3 93/4/3 92/4/3
f 98/2/3 94/2/3 93/2/3
f 99/4/3 95/4/3 94/4/3
f 99/2/3 94/2/3 98/2/3
f 100/7/3 97/7/3 96/7/3
f 101/7/3 97/7/3 100/7/3
f 102/4/3 98/4/3 92/4/3
f 102/4/3 99/4/3 98/4/3
f 103/4/3 99/4/3 102/4/3
f 104/4/3 95/4/3 99/4/3
f 104/4/3 99/4/3 103/4/3
f 105/4/3 95/4/3 104/4/3
f 106/6/3 101/6/3 100/6/3
f 106/7/3 100/7/3 96/7/3
f 107/7/3 97/7/3 101/7/3
f 107/6/3 101/6/3 106/6/3
f 108/2/3 103/2/3 102/2/3
f 109/4/3 104/4/3 103/4/3
f 109/2/3 103/2/3 108/2/3
f 110/2/3 105/2/3 104/2/3
f 110/4/3 104/4/3 109/4/3
f 111/4/3 95/4/3 105/4/3
f 111/2/3 105/2/3 110/2/3
f 112/5/3 96/5/3 95/5/3
f 112/7/3 106/7/3 96/7/3
f 112/7/3 107/7/3 106/7/3
f 113/7/3 107/7/3 112/7/3
f 114/4/3 95/4/3 111/4/3
f 114/4/3 111/4/3 110/4/3
f 114/5/3 113/5/3 112/5/3
f 114/5/3 112/5/3 95/5/3
f 114/4/3 110/4/3 109/4/3
f 114/4/3 109/4/3 108/4/3
f 115/5/3 113/5/3 114/5/3
f 116/4/3 114/4/3 108/4/3
f 116/4/3 115/4/3 114/4/3
f 117/4/3 115/4/3 116/4/3
f 118/4/3 115/4/3 117/4/3
f 119/4/3 115/4/3 118/4/3
f 120/4/3 116/4/3 108/4/3
f 120/2/3 117/2/3 116/2/3
f 121/4/3 118/4/3 117/4/3
f 121/2/3 117/2/3 120/2/3
f 122/4/3 120/4/3 108/4/3
f 122/4/3 121/4/3 120/4/3
f 123/4/3 121/4/3 122/4/3
f 124/2/3 119/2/3 118/2/3
f 124/4/3 121/4/3 123/4/3
f 124/4/3 118/4/3 121/4/3
f 125/4/3 115/4/3 119/4/3
f 125/2/3 119/2/3 124/2/3
f 126/5/3 113/5/3 115/5/3
f 126/4/3 115/4/3 125/4/3
f 127/4/3 122/4/3 108/4/3
f 128/2/3 123/2/3 122/2/3
f 128/4/3 122/4/3 127/4/3
f 129/4/3 125/4/3 124/4/3
f 129/2/3 123/2/3 128/2/3
f 129/4/3 124/4/3 123/4/3
f 130/5/3 126/5/3 125/5/3
f 130/4/3 125/4/3 129/4/3
f 131/7/3 107/7/3 113/7/3
f 131/5/3 126/5/3 130/5/3
f 131/5/3 113/5/3 126/5/3
f 132/7/3 97/7/3 107/7/3
f 132/7/3 107/7/3 131/7/3
f 133/4/4 134/4/4 139/4/4
f 139/4/4 134/4/4 140/4/4
f 135/7/4 136/7/4 141/7/4
f 136/6/4 137/6/4 141/6/4
f 137/7/4 138/7/4 142/7/4
f 141/6/4 137/6/4 142/6/4
f 139/2/4 140/2/4 143/2/4
f 133/4/4 139/4/4 143/4/4
f 140/4/4 134/4/4 144/4/4
f 143/2/4 140/2/4 144/2/4
f 144/4/4 134/4/4 145/4/4
f 145/4/4 134/4/4 146/4/4
f 135/7/4 141/7/4 147/7/4
f 141/7/4 142/7/4 147/7/4
f 142/7/4 138/7/4 148/7/4
f 147/7/4 142/7/4 148/7/4
f 145/2/4 146/2/4 149/2/4
f 143/4/4 144/4/4 149/4/4
f 144/4/4 145/4/4 149/4/4
f 146/4/4 134/4/4 150/4/4
f 149/2/4 146/2/4 150/2/4
f 148/7/4 138/7/4 151/7/4
f 151/7/4 138/7/4 152/7/4
f 135/7/4 147/7/4 153/7/4
f 147/6/4 148/6/4 153/6/4
f 148/7/4 151/7/4 154/7/4
f 153/6/4 148/6/4 154/6/4
f 143/4/4 149/4/4 155/4/4
f 149/4/4 150/4/4 155/4/4
f 155/4/4 150/4/4 156/4/4
f 134/5/4 135/5/4 157/5/4
f 153/7/4 154/7/4 157/7/4
f 135/7/4 153/7/4 157/7/4
f 157/7/4 154/7/4 158/7/4
f 156/4/4 150/4/4 159/4/4
f 150/4/4 134/4/4 159/4/4
f 157/5/4 158/5/4 159/5/4
f 134/5/4 157/5/4 159/5/4
f 159/5/4 158/5/4 160/5/4
f 154/7/4 151/7/4 161/7/4
f 158/7/4 154/7/4 161/7/4
f 151/6/4 152/6/4 161/6/4
f 161/6/4 152/6/4 162/6/4
f 133/4/4 143/4/4 163/4/4
f 143/4/4 155/4/4 163/4/4
f 163/4/4 155/4/4 164/4/4
f 155/2/4 156/2/4 165/2/4
f 164/4/4 155/4/4 165/4/4
f 159/4/4 160/4/4 166/4/4
f 165/2/4 156/2/4 166/2/4
f 156/4/4 159/4/4 166/4/4
f 163/2/4 164/2/4 167/2/4
f 164/4/4 165/4/4 168/4/4
f 167/2/4 164/2/4 168/2/4
f 165/4/4 166/4/4 168/4/4
f 160/5/4 158/5/4 169/5/4
f 168/4/4 166/4/4 169/4/4
f 166/4/4 160/4/4 169/4/4
f 161/7/4 162/7/4 170/7/4
f 169/5/4 158/5/4 170/5/4
f 158/7/4 161/7/4 170/7/4
f 170/7/4 162/7/4 171/7/4
f 176/4/5 173/4/5 172/4/5
f 176/2/5 174/2/5 173/2/5
f 177/4/5 175/4/5 174/4/5
f 177/2/5 174/2/5 176/2/5
f 178/4/5 176/4/5 172/4/5
f 178/4/5 177/4/5 176/4/5
f 179/4/5 177/4/5 178/4/5
f 180/2/5 179/2/5 178/2/5
f 181/4/5 177/4/5 179/4/5
f 181/2/5 179/2/5 180/2/5
f 182/4/5 175/4/5 177/4/5
f 182/4/5 177/4/5 181/4/5
f 182/4/5 181/4/5 180/4/5
f 183/4/5 175/4/5 182/4/5
f 184/4/5 182/4/5 180/4/5
f 185/2/5 183/2/5 182/2/5
f 185/4/5 182/4/5 184/4/5
f 186/2/5 183/2/5 185/2/5
f 187/7/6 188/7/6 189/7/6
f 189/7/6 188/7/6 190/7/6
f 190/7/6 188/7/6 191/7/6
f 191/7/6 188/7/6 192/7/6
f 187/7/6 189/7/6 193/7/6
f 193/7/6 189/7/6 194/7/6
f 189/6/6 190/6/6 195/6/6
f 194/7/6 189/7/6 195/7/6
f 190/7/6 191/7/6 196/7/6
f 195/6/6 190/6/6 196/6/6
f 196/7/6 191/7/6 197/7/6
f 197/7/6 191/7/6 198/7/6
f 191/6/6 192/6/6 199/6/6
f 198/7/6 191/7/6 199/7/6
f 199/6/6 192/6/6 200/6/6
f 194/7/6 195/7/6 201/7/6
f 197/6/6 198/6/6 201/6/6
f 195/7/6 196/7/6 201/7/6
f 196/7/6 197/7/6 201/7/6
f 199/7/6 200/7/6 202/7/6
f 201/6/6 198/6/6 202/6/6
f 198/7/6 199/7/6 202/7/6
f 193/6/6 194/6/6 203/6/6
f 194/7/6 201/7/6 204/7/6
f 203/6/6 194/6/6 204/6/6
f 201/7/6 202/7/6 204/7/6
f 204/7/6 202/7/6 205/7/6
f 205/7/6 202/7/6 206/7/6
f 202/7/6 200/7/6 207/7/6
f 206/7/6 202/7/6 207/7/6
f 207/7/6 200/7/6 208/7/6
f 205/6/6 206/6/6 209/6/6
f 203/7/6 204/7/6 209/7/6
f 204/7/6 205/7/6 209/7/6
f 206/7/6 207/7/6 210/7/6
f 209/6/6 206/6/6 210/6/6
f 207/6/6 208/6/6 211/6/6
f 210/7/6 207/7/6 211/7/6
f 209/7/6 210/7/6 211/7/6
f 211/6/6 208/6/6 212/6/6
f 209/7/6 211/7/6 213/7/6
f 211/7/6 212/7/6 213/7/6
f 213/7/6 212/7/6 214/7/6
f 203/7/6 209/7/6 215/7/6
f 209/7/6 213/7/6 215/7/6
f 213/6/6 214/6/6 216/6/6
f 215/7/6 213/7/6 216/7/6
f 214/7/6 212/7/6 217/7/6
f 216/6/6 214/6/6 217/6/6
f 217/7/6 212/7/6 218/7/6
