# MagicaVoxel @ Ephtracy

# group
o 

# material
mtllib Hole.mtl
usemtl palette

# normals
vn -1 0 0
vn 1 0 0
vn 0 0 1
vn 0 0 -1
vn 0 -1 0
vn 0 1 0

# texcoords
vt 0.603516 0.5
vt 0.873047 0.5
vt 0.974609 0.5
vt 0.986328 0.5

# verts
v -0.6 0 1.7
v -0.6 0 -2.1
v -0.6 0.4 1.8
v -0.6 0.4 1.7
v -0.6 0.5 1.8
v -0.6 0.5 1.7
v -0.6 0.6 1.9
v -0.6 0.6 1.7
v -0.6 0.7 1.9
v -0.6 0.7 -2.1
v -0.2 0 1.2
v -0.2 0 1.1
v -0.2 0.1 1.2
v -0.2 0.1 1.1
v -0.0999999 0.2 1.1
v -0.0999999 0.2 1
v -0.0999999 0.3 1.4
v -0.0999999 0.3 1.3
v -0.0999999 0.3 1.1
v -0.0999999 0.3 1
v -0.0999999 0.4 1.7
v -0.0999999 0.4 1.5
v -0.0999999 0.4 1.4
v -0.0999999 0.4 1.3
v -0.0999999 0.5 1.7
v -0.0999999 0.5 1.5
v 5.96046e-08 0.1 1.1
v 5.96046e-08 0.1 0.9
v 5.96046e-08 0.2 1.1
v 5.96046e-08 0.2 0.9
v 5.96046e-08 0.3 1.5
v 5.96046e-08 0.3 1.4
v 5.96046e-08 0.4 1.5
v 5.96046e-08 0.4 1.4
v 0.1 0.3 1.7
v 0.1 0.3 1.5
v 0.1 0.4 1.7
v 0.1 0.4 1.5
v 0.2 0 1.3
v 0.2 0 1.2
v 0.2 0.1 1.2
v 0.2 0.1 1.1
v 0.2 0.2 1.7
v 0.2 0.2 1.3
v 0.2 0.3 1.7
v 0.2 0.3 1.1
v -0.4 0.2 1.7
v -0.4 0.2 1.5
v -0.4 0.4 1.8
v -0.4 0.4 1.7
v -0.4 0.5 1.8
v -0.4 0.5 1.7
v -0.4 0.5 1.5
v -0.3 0 1.2
v -0.3 0 1.1
v -0.3 0.1 1.3
v -0.3 0.1 1.2
v -0.3 0.1 1.1
v -0.3 0.1 0.9
v -0.3 0.2 1.5
v -0.3 0.2 1.3
v -0.3 0.2 1
v -0.3 0.2 0.9
v -0.3 0.3 1.3
v -0.3 0.3 1
v -0.3 0.4 1.5
v -0.3 0.4 1.3
v 5.96046e-08 0 1.3
v 5.96046e-08 0 1.2
v 5.96046e-08 0.1 1.3
v 5.96046e-08 0.1 1.2
v 0.2 0.5 1.7
v 0.2 0.5 0.7
v 0.2 0.6 1.9
v 0.2 0.6 1.7
v 0.2 0.7 1.9
v 0.2 0.7 0.7
v 0.3 0 1.7
v 0.3 0 1.5
v 0.3 0.3 1.7
v 0.3 0.3 1.5
v 0.3 0.6 0.7
v 0.3 0.6 0.3
v 0.3 0.6 0.2
v 0.3 0.6 -2.1
v 0.3 0.7 0.7
v 0.3 0.7 0.3
v 0.3 0.7 0.2
v 0.3 0.7 -2.1
v 0.4 0 1.5
v 0.4 0 -2.1
v 0.4 0.3 1.7
v 0.4 0.3 1.5
v 0.4 0.5 1.7
v 0.4 0.5 0.7
v 0.4 0.6 0.7
v 0.4 0.6 -2.1
v -0.6 0.6 1.9
v -0.6 0.7 1.9
v 0.2 0.6 1.9
v 0.2 0.7 1.9
v -0.6 0.4 1.8
v -0.6 0.5 1.8
v -0.4 0.4 1.8
v -0.4 0.5 1.8
v -0.6 0 1.7
v -0.6 0.4 1.7
v -0.6 0.5 1.7
v -0.6 0.6 1.7
v -0.4 0.1 1.7
v -0.4 0.2 1.7
v -0.4 0.4 1.7
v -0.4 0.5 1.7
v -0.0999999 0.4 1.7
v -0.0999999 0.5 1.7
v 0.1 0.3 1.7
v 0.1 0.4 1.7
v 0.2 0.1 1.7
v 0.2 0.2 1.7
v 0.2 0.3 1.7
v 0.2 0.5 1.7
v 0.2 0.6 1.7
v 0.3 0 1.7
v 0.3 0.3 1.7
v 0.4 0.3 1.7
v 0.4 0.5 1.7
v -0.4 0.2 1.5
v -0.4 0.5 1.5
v -0.3 0.2 1.5
v -0.3 0.4 1.5
v -0.0999999 0.4 1.5
v -0.0999999 0.5 1.5
v 5.96046e-08 0.3 1.5
v 5.96046e-08 0.4 1.5
v 0.1 0.3 1.5
v 0.1 0.4 1.5
v 0.3 0 1.5
v 0.3 0.3 1.5
v 0.4 0 1.5
v 0.4 0.3 1.5
v -0.0999999 0.3 1.4
v -0.0999999 0.4 1.4
v 5.96046e-08 0.3 1.4
v 5.96046e-08 0.4 1.4
v -0.3 0.3 1.3
v -0.3 0.4 1.3
v -0.0999999 0.3 1.3
v -0.0999999 0.4 1.3
v 5.96046e-08 0 1.2
v 5.96046e-08 0.1 1.2
v 0.2 0 1.2
v 0.2 0.1 1.2
v -0.3 0 1.1
v -0.3 0.1 1.1
v -0.2 0 1.1
v -0.2 0.1 1.1
v -0.0999999 0.2 1.1
v -0.0999999 0.3 1.1
v 5.96046e-08 0.1 1.1
v 5.96046e-08 0.2 1.1
v 0.2 0.1 1.1
v 0.2 0.3 1.1
v -0.3 0.2 1
v -0.3 0.3 1
v -0.0999999 0.2 1
v -0.0999999 0.3 1
v -0.3 0.1 0.9
v -0.3 0.2 0.9
v 5.96046e-08 0.1 0.9
v 5.96046e-08 0.2 0.9
v 0.2 0.5 0.7
v 0.2 0.7 0.7
v 0.3 0.6 0.7
v 0.3 0.7 0.7
v 0.4 0.5 0.7
v 0.4 0.6 0.7
v -0.3 0.1 1.3
v -0.3 0.2 1.3
v 5.96046e-08 0 1.3
v 5.96046e-08 0.1 1.3
v 0.2 0 1.3
v 0.2 0.2 1.3
v -0.3 0 1.2
v -0.3 0.1 1.2
v -0.2 0 1.2
v -0.2 0.1 1.2
v -0.6 0 -2.1
v -0.6 0.7 -2.1
v 0.3 0.6 -2.1
v 0.3 0.7 -2.1
v 0.4 0 -2.1
v 0.4 0.6 -2.1
v -0.6 0 1.7
v 0.3 0 1.7
v -0.2 0 1.6
v 0.2 0 1.6
v -0.3 0 1.5
v -0.2 0 1.5
v 0.3 0 1.5
v 0.4 0 1.5
v 5.96046e-08 0 1.3
v 0.2 0 1.3
v -0.3 0 1.2
v -0.2 0 1.2
v -0.0999999 0 1.2
v 5.96046e-08 0 1.2
v 0.2 0 1.2
v -0.3 0 1.1
v -0.2 0 1.1
v -0.0999999 0 1.1
v -0.6 0 -2.1
v 0.4 0 -2.1
v -0.0999999 0.2 1.1
v 5.96046e-08 0.2 1.1
v -0.3 0.2 1
v -0.0999999 0.2 1
v -0.3 0.2 0.9
v 5.96046e-08 0.2 0.9
v 0.1 0.3 1.7
v 0.2 0.3 1.7
v 0.3 0.3 1.7
v 0.4 0.3 1.7
v 5.96046e-08 0.3 1.5
v 0.1 0.3 1.5
v 0.3 0.3 1.5
v 0.4 0.3 1.5
v -0.0999999 0.3 1.4
v 5.96046e-08 0.3 1.4
v -0.3 0.3 1.3
v -0.0999999 0.3 1.3
v -0.0999999 0.3 1.1
v 0.2 0.3 1.1
v -0.3 0.3 1
v -0.0999999 0.3 1
v -0.6 0.4 1.8
v -0.4 0.4 1.8
v -0.6 0.4 1.7
v -0.4 0.4 1.7
v -0.0999999 0.4 1.7
v 0.1 0.4 1.7
v -0.3 0.4 1.5
v -0.0999999 0.4 1.5
v 5.96046e-08 0.4 1.5
v 0.1 0.4 1.5
v -0.0999999 0.4 1.4
v 5.96046e-08 0.4 1.4
v -0.3 0.4 1.3
v -0.0999999 0.4 1.3
v -0.4 0.5 1.7
v -0.0999999 0.5 1.7
v -0.4 0.5 1.5
v -0.0999999 0.5 1.5
v -0.6 0.6 1.9
v 0.2 0.6 1.9
v -0.6 0.6 1.7
v 0.2 0.6 1.7
v -0.3 0.1 1.3
v 5.96046e-08 0.1 1.3
v -0.3 0.1 1.2
v -0.2 0.1 1.2
v -0.0999999 0.1 1.2
v 5.96046e-08 0.1 1.2
v 0.2 0.1 1.2
v -0.3 0.1 1.1
v -0.2 0.1 1.1
v -0.0999999 0.1 1.1
v 5.96046e-08 0.1 1.1
v 0.2 0.1 1.1
v -0.3 0.1 0.9
v 5.96046e-08 0.1 0.9
v -0.4 0.2 1.7
v 0.2 0.2 1.7
v -0.4 0.2 1.5
v -0.3 0.2 1.5
v -0.3 0.2 1.3
v 0.2 0.2 1.3
v -0.6 0.5 1.8
v -0.4 0.5 1.8
v -0.6 0.5 1.7
v -0.4 0.5 1.7
v 0.2 0.5 1.7
v 0.4 0.5 1.7
v 0.2 0.5 0.7
v 0.4 0.5 0.7
v 0.3 0.6 0.7
v 0.4 0.6 0.7
v 0.3 0.6 0.3
v 0.3 0.6 0.2
v 0.3 0.6 -2.1
v 0.4 0.6 -2.1
v -0.6 0.7 1.9
v 0.2 0.7 1.9
v 0.2 0.7 0.7
v 0.3 0.7 0.7
v 0.2 0.7 0.3
v 0.3 0.7 0.3
v 0.2 0.7 0.2
v 0.3 0.7 0.2
v 5.96046e-08 0.7 0.1
v 0.1 0.7 0.1
v 5.96046e-08 0.7 0
v 0.1 0.7 0
v -0.6 0.7 -2.1
v 0.3 0.7 -2.1

# faces
f 4/4/1 2/4/1 1/4/1
f 5/3/1 4/3/1 3/3/1
f 6/4/1 2/4/1 4/4/1
f 6/3/1 4/3/1 5/3/1
f 8/4/1 2/4/1 6/4/1
f 9/4/1 8/4/1 7/4/1
f 10/4/1 2/4/1 8/4/1
f 10/4/1 8/4/1 9/4/1
f 13/3/1 12/3/1 11/3/1
f 14/3/1 12/3/1 13/3/1
f 19/4/1 16/4/1 15/4/1
f 20/4/1 16/4/1 19/4/1
f 23/4/1 18/4/1 17/4/1
f 24/4/1 18/4/1 23/4/1
f 25/4/1 22/4/1 21/4/1
f 26/4/1 22/4/1 25/4/1
f 29/4/1 28/4/1 27/4/1
f 30/4/1 28/4/1 29/4/1
f 33/4/1 32/4/1 31/4/1
f 34/4/1 32/4/1 33/4/1
f 37/4/1 36/4/1 35/4/1
f 38/4/1 36/4/1 37/4/1
f 41/4/1 40/4/1 39/4/1
f 44/4/1 41/4/1 39/4/1
f 44/4/1 42/4/1 41/4/1
f 45/4/1 44/4/1 43/4/1
f 46/4/1 42/4/1 44/4/1
f 46/4/1 44/4/1 45/4/1
f 47/4/2 48/4/2 50/4/2
f 49/3/2 50/3/2 51/3/2
f 50/4/2 48/4/2 52/4/2
f 51/3/2 50/3/2 52/3/2
f 52/4/2 48/4/2 53/4/2
f 54/4/2 55/4/2 57/4/2
f 57/4/2 55/4/2 58/4/2
f 56/4/2 57/4/2 61/4/2
f 58/4/2 59/4/2 61/4/2
f 57/4/2 58/4/2 61/4/2
f 61/4/2 59/4/2 62/4/2
f 62/4/2 59/4/2 63/4/2
f 60/4/2 61/4/2 64/4/2
f 61/4/2 62/4/2 64/4/2
f 64/4/2 62/4/2 65/4/2
f 60/4/2 64/4/2 66/4/2
f 66/4/2 64/4/2 67/4/2
f 68/3/2 69/3/2 70/3/2
f 70/3/2 69/3/2 71/3/2
f 72/4/2 73/4/2 75/4/2
f 74/4/2 75/4/2 76/4/2
f 75/4/2 73/4/2 77/4/2
f 76/4/2 75/4/2 77/4/2
f 78/4/2 79/4/2 80/4/2
f 80/4/2 79/4/2 81/4/2
f 82/4/2 83/4/2 86/4/2
f 83/2/2 84/2/2 87/2/2
f 86/4/2 83/4/2 87/4/2
f 84/4/2 85/4/2 88/4/2
f 87/2/2 84/2/2 88/2/2
f 88/4/2 85/4/2 89/4/2
f 90/4/2 91/4/2 93/4/2
f 92/4/2 93/4/2 94/4/2
f 93/4/2 91/4/2 95/4/2
f 94/4/2 93/4/2 95/4/2
f 95/4/2 91/4/2 96/4/2
f 96/4/2 91/4/2 97/4/2
f 100/4/3 99/4/3 98/4/3
f 101/4/3 99/4/3 100/4/3
f 104/3/3 103/3/3 102/3/3
f 105/3/3 103/3/3 104/3/3
f 110/4/3 107/4/3 106/4/3
f 111/4/3 107/4/3 110/4/3
f 112/4/3 107/4/3 111/4/3
f 113/4/3 109/4/3 108/4/3
f 115/4/3 109/4/3 113/4/3
f 117/4/3 115/4/3 114/4/3
f 118/4/3 110/4/3 106/4/3
f 118/3/3 111/3/3 110/3/3
f 119/3/3 111/3/3 118/3/3
f 120/4/3 117/4/3 116/4/3
f 121/4/3 115/4/3 117/4/3
f 121/4/3 109/4/3 115/4/3
f 121/4/3 117/4/3 120/4/3
f 122/4/3 109/4/3 121/4/3
f 123/4/3 119/4/3 118/4/3
f 123/4/3 120/4/3 119/4/3
f 123/4/3 121/4/3 120/4/3
f 123/4/3 118/4/3 106/4/3
f 124/4/3 121/4/3 123/4/3
f 125/4/3 121/4/3 124/4/3
f 126/4/3 121/4/3 125/4/3
f 129/4/3 128/4/3 127/4/3
f 130/4/3 128/4/3 129/4/3
f 131/4/3 128/4/3 130/4/3
f 132/4/3 128/4/3 131/4/3
f 135/4/3 134/4/3 133/4/3
f 136/4/3 134/4/3 135/4/3
f 139/4/3 138/4/3 137/4/3
f 140/4/3 138/4/3 139/4/3
f 143/4/3 142/4/3 141/4/3
f 144/4/3 142/4/3 143/4/3
f 147/4/3 146/4/3 145/4/3
f 148/4/3 146/4/3 147/4/3
f 151/4/3 150/4/3 149/4/3
f 152/4/3 150/4/3 151/4/3
f 155/4/3 154/4/3 153/4/3
f 156/4/3 154/4/3 155/4/3
f 160/4/3 158/4/3 157/4/3
f 161/4/3 160/4/3 159/4/3
f 162/4/3 158/4/3 160/4/3
f 162/4/3 160/4/3 161/4/3
f 165/4/3 164/4/3 163/4/3
f 166/4/3 164/4/3 165/4/3
f 169/4/3 168/4/3 167/4/3
f 170/4/3 168/4/3 169/4/3
f 173/4/3 172/4/3 171/4/3
f 174/4/3 172/4/3 173/4/3
f 175/4/3 173/4/3 171/4/3
f 176/4/3 173/4/3 175/4/3
f 177/3/4 178/3/4 180/3/4
f 179/3/4 180/3/4 181/3/4
f 180/3/4 178/3/4 182/3/4
f 181/3/4 180/3/4 182/3/4
f 183/3/4 184/3/4 185/3/4
f 185/3/4 184/3/4 186/3/4
f 187/4/4 188/4/4 189/4/4
f 189/4/4 188/4/4 190/4/4
f 187/4/4 189/4/4 191/4/4
f 191/4/4 189/4/4 192/4/4
f 195/4/5 194/4/5 193/4/5
f 196/4/5 194/4/5 195/4/5
f 197/4/5 195/4/5 193/4/5
f 198/3/5 196/3/5 195/3/5
f 198/4/5 195/4/5 197/4/5
f 199/4/5 194/4/5 196/4/5
f 201/3/5 196/3/5 198/3/5
f 201/3/5 198/3/5 197/3/5
f 202/4/5 200/4/5 199/4/5
f 202/3/5 196/3/5 201/3/5
f 202/4/5 199/4/5 196/4/5
f 203/3/5 201/3/5 197/3/5
f 203/4/5 197/4/5 193/4/5
f 204/3/5 201/3/5 203/3/5
f 205/3/5 201/3/5 204/3/5
f 206/3/5 201/3/5 205/3/5
f 207/4/5 200/4/5 202/4/5
f 208/4/5 203/4/5 193/4/5
f 209/3/5 205/3/5 204/3/5
f 210/4/5 206/4/5 205/4/5
f 210/4/5 207/4/5 206/4/5
f 210/3/5 205/3/5 209/3/5
f 211/4/5 209/4/5 208/4/5
f 211/4/5 208/4/5 193/4/5
f 211/4/5 210/4/5 209/4/5
f 212/4/5 207/4/5 210/4/5
f 212/4/5 210/4/5 211/4/5
f 212/4/5 200/4/5 207/4/5
f 216/4/5 214/4/5 213/4/5
f 217/4/5 216/4/5 215/4/5
f 218/4/5 214/4/5 216/4/5
f 218/4/5 216/4/5 217/4/5
f 224/4/5 220/4/5 219/4/5
f 225/4/5 222/4/5 221/4/5
f 226/4/5 222/4/5 225/4/5
f 228/4/5 224/4/5 223/4/5
f 230/4/5 228/4/5 227/4/5
f 231/4/5 228/4/5 230/4/5
f 231/4/5 230/4/5 229/4/5
f 232/4/5 220/4/5 224/4/5
f 232/4/5 228/4/5 231/4/5
f 232/4/5 224/4/5 228/4/5
f 233/4/5 231/4/5 229/4/5
f 234/4/5 231/4/5 233/4/5
f 237/3/5 236/3/5 235/3/5
f 238/3/5 236/3/5 237/3/5
f 242/4/5 240/4/5 239/4/5
f 243/4/5 240/4/5 242/4/5
f 244/4/5 240/4/5 243/4/5
f 245/4/5 242/4/5 241/4/5
f 245/4/5 243/4/5 242/4/5
f 246/4/5 243/4/5 245/4/5
f 247/4/5 245/4/5 241/4/5
f 248/4/5 245/4/5 247/4/5
f 251/4/5 250/4/5 249/4/5
f 252/4/5 250/4/5 251/4/5
f 255/4/5 254/4/5 253/4/5
f 256/4/5 254/4/5 255/4/5
f 257/3/6 258/3/6 259/3/6
f 259/3/6 258/3/6 260/3/6
f 260/3/6 258/3/6 261/3/6
f 261/3/6 258/3/6 262/3/6
f 260/3/6 261/3/6 265/3/6
f 262/4/6 263/4/6 266/4/6
f 261/4/6 262/4/6 266/4/6
f 265/3/6 261/3/6 266/3/6
f 266/4/6 263/4/6 267/4/6
f 267/4/6 263/4/6 268/4/6
f 264/4/6 265/4/6 269/4/6
f 265/4/6 266/4/6 269/4/6
f 266/4/6 267/4/6 269/4/6
f 269/4/6 267/4/6 270/4/6
f 271/3/6 272/3/6 273/3/6
f 273/3/6 272/3/6 274/3/6
f 274/3/6 272/3/6 275/3/6
f 275/3/6 272/3/6 276/3/6
f 277/3/6 278/3/6 279/3/6
f 279/3/6 278/3/6 280/3/6
f 281/4/6 282/4/6 283/4/6
f 283/4/6 282/4/6 284/4/6
f 285/4/6 286/4/6 287/4/6
f 287/4/6 286/4/6 288/4/6
f 288/4/6 286/4/6 289/4/6
f 289/4/6 286/4/6 290/4/6
f 291/4/6 292/4/6 293/4/6
f 291/4/6 293/4/6 295/4/6
f 293/4/6 294/4/6 295/4/6
f 295/4/6 294/4/6 296/4/6
f 291/4/6 295/4/6 297/4/6
f 295/2/6 296/2/6 297/2/6
f 297/2/6 296/2/6 298/2/6
f 291/4/6 297/4/6 299/4/6
f 297/4/6 298/4/6 299/4/6
f 299/4/6 298/4/6 300/4/6
f 291/4/6 299/4/6 301/4/6
f 299/1/6 300/1/6 301/1/6
f 300/4/6 298/4/6 302/4/6
f 301/1/6 300/1/6 302/1/6
f 291/4/6 301/4/6 303/4/6
f 301/4/6 302/4/6 303/4/6
f 302/4/6 298/4/6 304/4/6
f 303/4/6 302/4/6 304/4/6
