# MagicaVoxel @ Ephtracy

# group
o 

# material
mtllib PlayerTank.mtl
usemtl palette

# normals
vn -1 0 0
vn 1 0 0
vn 0 0 1
vn 0 0 -1
vn 0 -1 0
vn 0 1 0

# texcoords
vt 0.486328 0.5
vt 0.603516 0.5
vt 0.623047 0.5
vt 0.884766 0.5
vt 0.888672 0.5
vt 0.947266 0.5

# verts
v -0.6 0 0.6
v -0.6 0 -1.1
v -0.6 0.1 0.3
v -0.6 0.1 -0.7
v -0.6 0.3 0.3
v -0.6 0.3 -0.7
v -0.6 0.4 0.6
v -0.6 0.4 -1.1
v -0.5 0 0.7
v -0.5 0 0.6
v -0.5 0.1 0.3
v -0.5 0.1 -0.7
v -0.5 0.2 0.3
v -0.5 0.2 -0.7
v -0.5 0.3 0.3
v -0.5 0.3 -0.7
v -0.5 0.4 0.7
v -0.5 0.4 0.6
v -0.2 0 0.7
v -0.2 0 0.5
v -0.2 0.2 0.6
v -0.2 0.2 0.5
v -0.2 0.3 0.6
v -0.2 0.3 0.2
v -0.2 0.3 0.0999999
v -0.2 0.3 -1.19209e-07
v -0.2 0.3 -0.2
v -0.2 0.4 1
v -0.2 0.4 0.7
v -0.2 0.4 0.2
v -0.2 0.4 0.0999999
v -0.2 0.4 -1.19209e-07
v -0.2 0.6 0.0999999
v -0.2 0.6 -1.19209e-07
v -0.2 0.7 1
v -0.2 0.7 -0.2
v -0.0999999 0.3 -0.2
v -0.0999999 0.3 -0.6
v -0.0999999 0.4 -0.2
v -0.0999999 0.4 -0.6
v 5.96046e-08 0.4 -0.2
v 5.96046e-08 0.4 -0.5
v 5.96046e-08 0.5 -0.2
v 5.96046e-08 0.5 -0.5
v 0.1 0.5 -0.2
v 0.1 0.5 -0.3
v 0.1 0.6 -0.2
v 0.1 0.6 -0.3
v 0.3 0 0.6
v 0.3 0 0.5
v 0.3 0 -0.7
v 0.3 0 -1.1
v 0.3 0.2 -0.6
v 0.3 0.2 -0.7
v 0.3 0.4 0.5
v 0.3 0.4 0.4
v 0.3 0.4 -0.6
v 0.3 0.4 -1.1
v 0.3 0.5 0.6
v 0.3 0.5 0.4
v -0.3 0 0.7
v -0.3 0 0.5
v -0.3 0 -0.7
v -0.3 0 -1.1
v -0.3 0.2 0.6
v -0.3 0.2 0.5
v -0.3 0.3 0.6
v -0.3 0.3 0.0999999
v -0.3 0.3 -1.19209e-07
v -0.3 0.3 -0.7
v -0.3 0.4 0.7
v -0.3 0.4 0.0999999
v -0.3 0.4 -1.19209e-07
v -0.3 0.4 -1.1
v -0.0999999 0.2 -0.6
v -0.0999999 0.2 -0.7
v -0.0999999 0.3 -0.6
v -0.0999999 0.3 -0.7
v 0.2 0 0.7
v 0.2 0 0.5
v 0.2 0.3 0.6
v 0.2 0.3 0.5
v 0.2 0.4 1
v 0.2 0.4 0.7
v 0.2 0.4 0.6
v 0.2 0.4 0.5
v 0.2 0.4 0.2
v 0.2 0.4 0.0999999
v 0.2 0.4 -1.19209e-07
v 0.2 0.4 -0.1
v 0.2 0.4 -0.2
v 0.2 0.4 -0.3
v 0.2 0.4 -0.5
v 0.2 0.5 0.0999999
v 0.2 0.5 -1.19209e-07
v 0.2 0.5 -0.1
v 0.2 0.5 -0.2
v 0.2 0.5 -0.3
v 0.2 0.5 -0.5
v 0.2 0.6 0.0999999
v 0.2 0.6 -1.19209e-07
v 0.2 0.6 -0.2
v 0.2 0.6 -0.3
v 0.2 0.7 1
v 0.2 0.7 -0.2
v 0.6 0 0.6
v 0.6 0 0.5
v 0.6 0.1 0.3
v 0.6 0.1 -0.7
v 0.6 0.1 -1
v 0.6 0.2 0.3
v 0.6 0.2 -0.7
v 0.6 0.3 0.3
v 0.6 0.3 -1
v 0.6 0.4 0.5
v 0.6 0.4 0.4
v 0.6 0.5 0.6
v 0.6 0.5 0.4
v 0.7 0 0.5
v 0.7 0 -1.1
v 0.7 0.1 0.3
v 0.7 0.1 -1
v 0.7 0.3 0.3
v 0.7 0.3 -1
v 0.7 0.4 0.5
v 0.7 0.4 -1.1
v -0.2 0.4 1
v -0.2 0.7 1
v 0.2 0.4 1
v 0.2 0.7 1
v -0.5 0 0.7
v -0.5 0.4 0.7
v -0.3 0 0.7
v -0.3 0.4 0.7
v -0.2 0 0.7
v -0.2 0.4 0.7
v 0.2 0 0.7
v 0.2 0.4 0.7
v -0.6 0 0.6
v -0.6 0.4 0.6
v -0.5 0 0.6
v -0.5 0.4 0.6
v -0.3 0.2 0.6
v -0.3 0.3 0.6
v -0.2 0.2 0.6
v -0.2 0.3 0.6
v 0.3 0 0.6
v 0.3 0.5 0.6
v 0.6 0 0.6
v 0.6 0.5 0.6
v -0.3 0 0.5
v -0.3 0.2 0.5
v -0.2 0 0.5
v -0.2 0.2 0.5
v 0.2 0 0.5
v 0.2 0.3 0.5
v 0.2 0.4 0.5
v 0.3 0 0.5
v 0.3 0.4 0.5
v 0.6 0 0.5
v 0.6 0.4 0.5
v 0.7 0 0.5
v 0.7 0.4 0.5
v -0.3 0.3 0.0999999
v -0.3 0.4 0.0999999
v -0.2 0.3 0.0999999
v -0.2 0.4 0.0999999
v -0.6 0.1 -0.7
v -0.6 0.3 -0.7
v -0.5 0.1 -0.7
v -0.5 0.2 -0.7
v -0.5 0.3 -0.7
v 0.6 0.1 -1
v 0.6 0.3 -1
v 0.7 0.1 -1
v 0.7 0.3 -1
v 0.3 0.4 0.4
v 0.3 0.5 0.4
v 0.6 0.4 0.4
v 0.6 0.5 0.4
v -0.6 0.1 0.3
v -0.6 0.3 0.3
v -0.5 0.1 0.3
v -0.5 0.2 0.3
v -0.5 0.3 0.3
v 0.6 0.1 0.3
v 0.6 0.2 0.3
v 0.6 0.3 0.3
v 0.7 0.1 0.3
v 0.7 0.3 0.3
v -0.3 0.3 -1.19209e-07
v -0.3 0.4 -1.19209e-07
v -0.2 0.3 -1.19209e-07
v -0.2 0.4 -1.19209e-07
v -0.2 0.3 -0.2
v -0.2 0.7 -0.2
v -0.0999999 0.3 -0.2
v -0.0999999 0.4 -0.2
v 5.96046e-08 0.4 -0.2
v 5.96046e-08 0.5 -0.2
v 0.1 0.5 -0.2
v 0.1 0.6 -0.2
v 0.2 0.6 -0.2
v 0.2 0.7 -0.2
v 0.1 0.5 -0.3
v 0.1 0.6 -0.3
v 0.2 0.5 -0.3
v 0.2 0.6 -0.3
v 5.96046e-08 0.4 -0.5
v 5.96046e-08 0.5 -0.5
v 0.2 0.4 -0.5
v 0.2 0.5 -0.5
v -0.0999999 0.2 -0.6
v -0.0999999 0.3 -0.6
v -0.0999999 0.4 -0.6
v 0.3 0.2 -0.6
v 0.3 0.4 -0.6
v -0.3 0 -0.7
v -0.3 0.3 -0.7
v -0.0999999 0.2 -0.7
v -0.0999999 0.3 -0.7
v 0.3 0 -0.7
v 0.3 0.2 -0.7
v -0.6 0 -1.1
v -0.6 0.4 -1.1
v -0.3 0 -1.1
v -0.3 0.4 -1.1
v 0.3 0 -1.1
v 0.3 0.4 -1.1
v 0.7 0 -1.1
v 0.7 0.4 -1.1
v -0.5 0 0.7
v -0.3 0 0.7
v -0.2 0 0.7
v 0.2 0 0.7
v -0.6 0 0.6
v -0.5 0 0.6
v 0.3 0 0.6
v 0.6 0 0.6
v -0.5 0 0.5
v -0.3 0 0.5
v -0.2 0 0.5
v 0.2 0 0.5
v 0.3 0 0.5
v 0.6 0 0.5
v 0.7 0 0.5
v -0.5 0 -0.7
v -0.3 0 -0.7
v 0.3 0 -0.7
v 0.6 0 -0.7
v -0.6 0 -1.1
v -0.3 0 -1.1
v 0.3 0 -1.1
v 0.7 0 -1.1
v -0.3 0.2 0.6
v -0.2 0.2 0.6
v -0.3 0.2 0.5
v -0.2 0.2 0.5
v -0.6 0.3 0.3
v -0.5 0.3 0.3
v 0.6 0.3 0.3
v 0.7 0.3 0.3
v -0.6 0.3 -0.7
v -0.5 0.3 -0.7
v 0.6 0.3 -1
v 0.7 0.3 -1
v -0.2 0.4 1
v 0.2 0.4 1
v -0.2 0.4 0.7
v 0.2 0.4 0.7
v -0.6 0.1 0.3
v -0.5 0.1 0.3
v 0.6 0.1 0.3
v 0.7 0.1 0.3
v -0.6 0.1 -0.7
v -0.5 0.1 -0.7
v 0.6 0.1 -0.7
v 0.6 0.1 -1
v 0.7 0.1 -1
v -0.0999999 0.2 -0.6
v 0.3 0.2 -0.6
v -0.0999999 0.2 -0.7
v 0.3 0.2 -0.7
v -0.3 0.3 0.6
v -0.2 0.3 0.6
v -0.2 0.3 0.2
v -0.3 0.3 0.0999999
v -0.2 0.3 0.0999999
v -0.3 0.3 -1.19209e-07
v -0.2 0.3 -1.19209e-07
v -0.2 0.3 -0.2
v -0.0999999 0.3 -0.2
v -0.0999999 0.3 -0.6
v -0.3 0.3 -0.7
v -0.0999999 0.3 -0.7
v -0.5 0.4 0.7
v -0.3 0.4 0.7
v -0.6 0.4 0.6
v -0.5 0.4 0.6
v 0.2 0.4 0.5
v 0.3 0.4 0.5
v 0.6 0.4 0.5
v 0.7 0.4 0.5
v 0.3 0.4 0.4
v 0.6 0.4 0.4
v 0.2 0.4 0.2
v 0.3 0.4 0.2
v -0.3 0.4 0.0999999
v -0.2 0.4 0.0999999
v 0.2 0.4 0.0999999
v 0.3 0.4 0.0999999
v -0.3 0.4 -1.19209e-07
v -0.2 0.4 -1.19209e-07
v 0.2 0.4 -1.19209e-07
v 0.3 0.4 -1.19209e-07
v 0.2 0.4 -0.1
v 0.3 0.4 -0.1
v -0.0999999 0.4 -0.2
v 5.96046e-08 0.4 -0.2
v 0.2 0.4 -0.2
v 0.3 0.4 -0.2
v 0.2 0.4 -0.3
v 0.3 0.4 -0.3
v 5.96046e-08 0.4 -0.5
v 0.2 0.4 -0.5
v -0.0999999 0.4 -0.6
v 0.3 0.4 -0.6
v -0.6 0.4 -1.1
v -0.3 0.4 -1.1
v 0.3 0.4 -1.1
v 0.7 0.4 -1.1
v 0.3 0.5 0.6
v 0.6 0.5 0.6
v 0.3 0.5 0.4
v 0.6 0.5 0.4
v 5.96046e-08 0.5 -0.2
v 0.1 0.5 -0.2
v 0.1 0.5 -0.3
v 0.2 0.5 -0.3
v 5.96046e-08 0.5 -0.5
v 0.2 0.5 -0.5
v 0.1 0.6 -0.2
v 0.2 0.6 -0.2
v 0.1 0.6 -0.3
v 0.2 0.6 -0.3
v -0.2 0.7 1
v 0.2 0.7 1
v 5.96046e-08 0.7 0.0999999
v 0.1 0.7 0.0999999
v 5.96046e-08 0.7 -1.19209e-07
v 0.1 0.7 -1.19209e-07
v -0.2 0.7 -0.2
v 0.2 0.7 -0.2

# faces
f 3/6/1 2/6/1 1/6/1
f 4/6/1 2/6/1 3/6/1
f 5/6/1 3/6/1 1/6/1
f 6/6/1 2/6/1 4/6/1
f 7/6/1 5/6/1 1/6/1
f 7/6/1 6/6/1 5/6/1
f 8/6/1 2/6/1 6/6/1
f 8/6/1 6/6/1 7/6/1
f 13/5/1 12/5/1 11/5/1
f 14/5/1 12/5/1 13/5/1
f 15/6/1 14/6/1 13/6/1
f 16/6/1 14/6/1 15/6/1
f 17/6/1 10/6/1 9/6/1
f 18/6/1 10/6/1 17/6/1
f 21/4/1 20/4/1 19/4/1
f 22/4/1 20/4/1 21/4/1
f 23/4/1 21/4/1 19/4/1
f 29/4/1 23/4/1 19/4/1
f 29/4/1 24/4/1 23/4/1
f 30/2/1 25/2/1 24/2/1
f 30/4/1 24/4/1 29/4/1
f 31/2/1 25/2/1 30/2/1
f 32/4/1 27/4/1 26/4/1
f 33/4/1 31/4/1 30/4/1
f 33/2/1 32/2/1 31/2/1
f 33/4/1 29/4/1 28/4/1
f 33/4/1 30/4/1 29/4/1
f 34/4/1 27/4/1 32/4/1
f 34/2/1 32/2/1 33/2/1
f 35/4/1 33/4/1 28/4/1
f 35/4/1 34/4/1 33/4/1
f 36/4/1 27/4/1 34/4/1
f 36/4/1 34/4/1 35/4/1
f 39/5/1 38/5/1 37/5/1
f 40/5/1 38/5/1 39/5/1
f 43/5/1 42/5/1 41/5/1
f 44/5/1 42/5/1 43/5/1
f 47/1/1 46/1/1 45/1/1
f 48/1/1 46/1/1 47/1/1
f 54/6/1 52/6/1 51/6/1
f 55/6/1 50/6/1 49/6/1
f 57/6/1 54/6/1 53/6/1
f 58/6/1 52/6/1 54/6/1
f 58/6/1 54/6/1 57/6/1
f 59/6/1 56/6/1 55/6/1
f 59/6/1 55/6/1 49/6/1
f 60/6/1 56/6/1 59/6/1
f 61/6/2 62/6/2 65/6/2
f 65/6/2 62/6/2 66/6/2
f 61/6/2 65/6/2 67/6/2
f 63/6/2 64/6/2 70/6/2
f 67/6/2 68/6/2 71/6/2
f 61/6/2 67/6/2 71/6/2
f 71/6/2 68/6/2 72/6/2
f 69/6/2 70/6/2 73/6/2
f 70/6/2 64/6/2 74/6/2
f 73/6/2 70/6/2 74/6/2
f 75/5/2 76/5/2 77/5/2
f 77/5/2 76/5/2 78/5/2
f 79/4/2 80/4/2 81/4/2
f 81/4/2 80/4/2 82/4/2
f 79/4/2 81/4/2 84/4/2
f 81/5/2 82/5/2 85/5/2
f 84/4/2 81/4/2 85/4/2
f 85/5/2 82/5/2 86/5/2
f 85/4/2 86/4/2 94/4/2
f 83/4/2 84/4/2 94/4/2
f 84/4/2 85/4/2 94/4/2
f 86/4/2 87/4/2 94/4/2
f 87/4/2 88/4/2 94/4/2
f 88/4/2 89/4/2 94/4/2
f 89/2/2 90/2/2 95/2/2
f 94/4/2 89/4/2 95/4/2
f 92/5/2 93/5/2 96/5/2
f 95/2/2 90/2/2 96/2/2
f 91/5/2 92/5/2 96/5/2
f 90/5/2 91/5/2 96/5/2
f 96/5/2 93/5/2 97/5/2
f 97/5/2 93/5/2 98/5/2
f 98/5/2 93/5/2 99/5/2
f 94/2/2 95/2/2 100/2/2
f 83/4/2 94/4/2 100/4/2
f 95/3/2 96/3/2 101/3/2
f 100/2/2 95/2/2 101/2/2
f 96/3/2 97/3/2 101/3/2
f 97/1/2 98/1/2 102/1/2
f 101/3/2 97/3/2 102/3/2
f 102/1/2 98/1/2 103/1/2
f 100/4/2 101/4/2 104/4/2
f 83/4/2 100/4/2 104/4/2
f 101/4/2 102/4/2 104/4/2
f 104/4/2 102/4/2 105/4/2
f 108/5/2 109/5/2 111/5/2
f 109/6/2 110/6/2 112/6/2
f 111/5/2 109/5/2 112/5/2
f 111/6/2 112/6/2 113/6/2
f 112/6/2 110/6/2 114/6/2
f 113/6/2 112/6/2 114/6/2
f 106/6/2 107/6/2 115/6/2
f 106/6/2 115/6/2 117/6/2
f 115/6/2 116/6/2 117/6/2
f 117/6/2 116/6/2 118/6/2
f 119/6/2 120/6/2 121/6/2
f 121/6/2 120/6/2 122/6/2
f 119/6/2 121/6/2 123/6/2
f 122/6/2 120/6/2 124/6/2
f 119/6/2 123/6/2 125/6/2
f 123/6/2 124/6/2 125/6/2
f 124/6/2 120/6/2 126/6/2
f 125/6/2 124/6/2 126/6/2
f 129/4/3 128/4/3 127/4/3
f 130/4/3 128/4/3 129/4/3
f 133/6/3 132/6/3 131/6/3
f 134/6/3 132/6/3 133/6/3
f 137/4/3 136/4/3 135/4/3
f 138/4/3 136/4/3 137/4/3
f 141/6/3 140/6/3 139/6/3
f 142/6/3 140/6/3 141/6/3
f 145/5/3 144/5/3 143/5/3
f 146/5/3 144/5/3 145/5/3
f 149/6/3 148/6/3 147/6/3
f 150/6/3 148/6/3 149/6/3
f 153/5/3 152/5/3 151/5/3
f 154/5/3 152/5/3 153/5/3
f 158/5/3 156/5/3 155/5/3
f 158/5/3 157/5/3 156/5/3
f 159/5/3 157/5/3 158/5/3
f 162/6/3 161/6/3 160/6/3
f 163/6/3 161/6/3 162/6/3
f 166/2/3 165/2/3 164/2/3
f 167/2/3 165/2/3 166/2/3
f 170/6/3 169/6/3 168/6/3
f 171/6/3 169/6/3 170/6/3
f 172/6/3 169/6/3 171/6/3
f 175/6/3 174/6/3 173/6/3
f 176/6/3 174/6/3 175/6/3
f 177/6/4 178/6/4 179/6/4
f 179/6/4 178/6/4 180/6/4
f 181/6/4 182/6/4 183/6/4
f 183/6/4 182/6/4 184/6/4
f 184/6/4 182/6/4 185/6/4
f 186/6/4 187/6/4 189/6/4
f 187/6/4 188/6/4 189/6/4
f 189/6/4 188/6/4 190/6/4
f 191/2/4 192/2/4 193/2/4
f 193/2/4 192/2/4 194/2/4
f 195/4/4 196/4/4 197/4/4
f 197/4/4 196/4/4 198/4/4
f 198/4/4 196/4/4 199/4/4
f 199/4/4 196/4/4 200/4/4
f 200/4/4 196/4/4 201/4/4
f 201/4/4 196/4/4 202/4/4
f 202/4/4 196/4/4 203/4/4
f 203/4/4 196/4/4 204/4/4
f 205/1/4 206/1/4 207/1/4
f 207/1/4 206/1/4 208/1/4
f 209/5/4 210/5/4 211/5/4
f 211/5/4 210/5/4 212/5/4
f 213/5/4 214/5/4 216/5/4
f 214/5/4 215/5/4 216/5/4
f 216/5/4 215/5/4 217/5/4
f 218/5/4 219/5/4 220/5/4
f 220/5/4 219/5/4 221/5/4
f 218/5/4 220/5/4 222/5/4
f 222/5/4 220/5/4 223/5/4
f 224/6/4 225/6/4 226/6/4
f 226/6/4 225/6/4 227/6/4
f 228/6/4 229/6/4 230/6/4
f 230/6/4 229/6/4 231/6/4
f 237/6/5 233/6/5 232/6/5
f 240/6/5 233/6/5 237/6/5
f 240/6/5 237/6/5 236/6/5
f 241/6/5 233/6/5 240/6/5
f 242/4/5 235/4/5 234/4/5
f 243/4/5 235/4/5 242/4/5
f 244/6/5 239/6/5 238/6/5
f 245/6/5 239/6/5 244/6/5
f 247/5/5 241/5/5 240/5/5
f 247/5/5 243/5/5 242/5/5
f 247/5/5 245/5/5 244/5/5
f 247/5/5 244/5/5 243/5/5
f 247/6/5 240/6/5 236/6/5
f 247/5/5 242/5/5 241/5/5
f 248/5/5 245/5/5 247/5/5
f 249/5/5 245/5/5 248/5/5
f 250/6/5 246/6/5 245/6/5
f 250/5/5 245/5/5 249/5/5
f 251/6/5 247/6/5 236/6/5
f 251/6/5 248/6/5 247/6/5
f 252/6/5 248/6/5 251/6/5
f 253/6/5 250/6/5 249/6/5
f 254/6/5 246/6/5 250/6/5
f 254/6/5 250/6/5 253/6/5
f 257/5/5 256/5/5 255/5/5
f 258/5/5 256/5/5 257/5/5
f 263/6/5 260/6/5 259/6/5
f 264/6/5 260/6/5 263/6/5
f 265/6/5 262/6/5 261/6/5
f 266/6/5 262/6/5 265/6/5
f 269/4/5 268/4/5 267/4/5
f 270/4/5 268/4/5 269/4/5
f 271/6/6 272/6/6 275/6/6
f 275/6/6 272/6/6 276/6/6
f 273/6/6 274/6/6 277/6/6
f 277/6/6 274/6/6 278/6/6
f 278/6/6 274/6/6 279/6/6
f 280/5/6 281/5/6 282/5/6
f 282/5/6 281/5/6 283/5/6
f 284/5/6 285/5/6 286/5/6
f 284/5/6 286/5/6 287/5/6
f 287/5/6 286/5/6 288/5/6
f 289/5/6 290/5/6 291/5/6
f 291/5/6 292/5/6 293/5/6
f 289/5/6 291/5/6 294/5/6
f 291/5/6 293/5/6 294/5/6
f 294/5/6 293/5/6 295/5/6
f 296/6/6 297/6/6 299/6/6
f 300/5/6 301/5/6 304/5/6
f 302/6/6 303/6/6 305/6/6
f 300/5/6 304/5/6 306/5/6
f 304/6/6 305/6/6 307/6/6
f 306/5/6 304/5/6 307/5/6
f 299/6/6 297/6/6 308/6/6
f 298/6/6 299/6/6 308/6/6
f 306/2/6 307/2/6 310/2/6
f 307/6/6 305/6/6 311/6/6
f 310/2/6 307/2/6 311/2/6
f 308/2/6 309/2/6 312/2/6
f 298/6/6 308/6/6 312/6/6
f 312/2/6 309/2/6 313/2/6
f 310/5/6 311/5/6 314/5/6
f 311/6/6 305/6/6 315/6/6
f 314/5/6 311/5/6 315/5/6
f 314/2/6 315/2/6 316/2/6
f 315/6/6 305/6/6 317/6/6
f 316/2/6 315/2/6 317/2/6
f 316/5/6 317/5/6 320/5/6
f 317/6/6 305/6/6 321/6/6
f 320/5/6 317/5/6 321/5/6
f 320/2/6 321/2/6 322/2/6
f 321/6/6 305/6/6 323/6/6
f 322/2/6 321/2/6 323/2/6
f 318/5/6 319/5/6 324/5/6
f 322/5/6 323/5/6 325/5/6
f 318/5/6 324/5/6 326/5/6
f 324/5/6 325/5/6 326/5/6
f 323/6/6 305/6/6 327/6/6
f 326/5/6 325/5/6 327/5/6
f 325/5/6 323/5/6 327/5/6
f 298/6/6 312/6/6 328/6/6
f 328/6/6 312/6/6 329/6/6
f 327/6/6 305/6/6 330/6/6
f 305/6/6 303/6/6 331/6/6
f 330/6/6 305/6/6 331/6/6
f 332/6/6 333/6/6 334/6/6
f 334/6/6 333/6/6 335/6/6
f 336/5/6 337/5/6 338/5/6
f 336/5/6 338/5/6 340/5/6
f 338/5/6 339/5/6 340/5/6
f 340/5/6 339/5/6 341/5/6
f 342/1/6 343/1/6 344/1/6
f 344/1/6 343/1/6 345/1/6
f 346/4/6 347/4/6 348/4/6
f 348/4/6 347/4/6 349/4/6
f 346/4/6 348/4/6 350/4/6
f 348/2/6 349/2/6 350/2/6
f 349/4/6 347/4/6 351/4/6
f 350/2/6 349/2/6 351/2/6
f 346/4/6 350/4/6 352/4/6
f 350/4/6 351/4/6 352/4/6
f 351/4/6 347/4/6 353/4/6
f 352/4/6 351/4/6 353/4/6
